<svg xmlns="http://www.w3.org/2000/svg" width="32" height="32" viewBox="0 0 32 32">
  <defs>
    <linearGradient id="enterpriseGradient" x1="0%" y1="0%" x2="100%" y2="100%">
      <stop offset="0%" style="stop-color:#2563eb;stop-opacity:1" />
      <stop offset="100%" style="stop-color:#1d4ed8;stop-opacity:1" />
    </linearGradient>
  </defs>
  
  <!-- 外围圆形背景 -->
  <circle cx="16" cy="16" r="15" fill="url(#enterpriseGradient)" stroke="#1e40af" stroke-width="1"/>
  
  <!-- 企业建筑图标 -->
  <g transform="translate(8, 6)">
    <!-- 主建筑 -->
    <rect x="2" y="8" width="12" height="12" fill="white" rx="1"/>
    
    <!-- 建筑顶部 -->
    <rect x="2" y="6" width="12" height="3" fill="white" rx="1"/>
    
    <!-- 窗户 -->
    <rect x="4" y="10" width="2" height="2" fill="#2563eb" rx="0.5"/>
    <rect x="7" y="10" width="2" height="2" fill="#2563eb" rx="0.5"/>
    <rect x="10" y="10" width="2" height="2" fill="#2563eb" rx="0.5"/>
    
    <rect x="4" y="13" width="2" height="2" fill="#2563eb" rx="0.5"/>
    <rect x="7" y="13" width="2" height="2" fill="#2563eb" rx="0.5"/>
    <rect x="10" y="13" width="2" height="2" fill="#2563eb" rx="0.5"/>
    
    <rect x="4" y="16" width="2" height="2" fill="#2563eb" rx="0.5"/>
    <rect x="7" y="16" width="2" height="2" fill="#2563eb" rx="0.5"/>
    <rect x="10" y="16" width="2" height="2" fill="#2563eb" rx="0.5"/>
    
    <!-- 门 -->
    <rect x="7.5" y="16" width="1" height="4" fill="#1d4ed8" rx="0.5"/>
  </g>
</svg>